<svg width="170" height="170" viewBox="0 0 170 170" fill="none" xmlns="http://www.w3.org/2000/svg">
<g filter="url(#filter0_d_2_1459)">
<circle cx="85" cy="81" r="81" fill="#F7EAEB"/>
<path d="M136.735 49.2079C136.724 49.2189 136.713 49.2189 136.713 49.2419L136.69 49.2639C136.656 49.2989 136.644 49.3099 136.656 49.3099L103.965 83.6599L96.2647 91.7529C96.2509 91.7427 96.2352 91.7353 96.2186 91.7309L96.0827 91.6629L64.5966 77.6129L65.7447 77.0789L71.0527 74.5899L78.4527 71.1229C78.4658 71.1119 78.4811 71.104 78.4977 71.0999H78.5097L133.73 45.2409C134.257 44.9934 134.854 44.9345 135.42 45.0741C135.985 45.2137 136.486 45.5434 136.838 46.0079C137.19 46.4725 137.372 47.0437 137.353 47.6262C137.334 48.2087 137.116 48.7671 136.735 49.2079Z" fill="url(#paint0_linear_2_1459)"/>
<g style="mix-blend-mode:multiply" opacity="0.2">
<g style="mix-blend-mode:multiply" opacity="0.2">
<path d="M32.4215 66.3831H32.4335C32.4215 66.3941 32.4215 66.4051 32.4105 66.4171C32.4097 66.4109 32.4102 66.4047 32.4121 66.3988C32.4141 66.3929 32.4173 66.3875 32.4215 66.3831Z" fill="black"/>
</g>
</g>
<g style="mix-blend-mode:multiply" opacity="0.2">
<g style="mix-blend-mode:multiply" opacity="0.2">
<path d="M96.2688 91.753C96.2688 91.753 95.2338 91.378 93.4378 90.696C91.6378 89.98 89.0728 89.026 86.0158 87.775C82.9578 86.547 79.3998 85.081 75.6158 83.467C71.8318 81.853 67.8068 80.08 63.7828 78.307C61.7828 77.397 59.7828 76.499 57.8158 75.601C55.8488 74.726 53.9278 73.801 52.0528 72.942C48.3248 71.202 44.8578 69.542 41.9019 68.077C40.4129 67.36 39.0718 66.677 37.8668 66.065C37.2758 65.765 36.7078 65.473 36.2068 65.235C35.7571 65.0232 35.2586 64.9369 34.7639 64.985C34.0467 65.0502 33.3748 65.3636 32.8638 65.871C32.819 65.9136 32.7772 65.9594 32.7388 66.008C32.7038 66.042 32.6699 66.087 32.6389 66.121C32.6056 66.1516 32.5752 66.1851 32.5479 66.221C32.9461 65.5778 33.5666 65.1033 34.2916 64.8874C35.0166 64.6715 35.7957 64.7294 36.4808 65.05L64.6028 77.61L65.7508 77.076C69.3508 78.701 72.9458 80.327 76.3108 81.907C80.0388 83.646 83.5058 85.317 86.4718 86.772C89.4378 88.227 91.8718 89.488 93.5878 90.352C94.8718 91.012 95.7358 91.466 96.0878 91.66L96.2238 91.728C96.2403 91.7334 96.2555 91.7419 96.2688 91.753Z" fill="black"/>
</g>
</g>
<path d="M96.2692 91.753L83.8692 104.791C83.8605 104.801 83.8531 104.813 83.8472 104.825C83.8472 104.825 83.8352 104.814 83.8352 104.825L73.9462 115.225C73.8031 115.377 73.6516 115.522 73.4922 115.657C72.8701 116.184 72.1457 116.577 71.3645 116.81C70.5833 117.044 69.7622 117.113 68.9529 117.014C68.1436 116.914 67.3637 116.649 66.6621 116.233C65.9605 115.818 65.3524 115.262 64.8762 114.6L45.1542 87.206V87.195C45.1312 87.183 45.1312 87.172 45.1312 87.172L44.8932 86.842L32.6172 69.803C32.2619 69.3316 32.0503 68.7676 32.0079 68.1787C31.9655 67.5899 32.0941 67.0014 32.3782 66.484C32.3888 66.4706 32.3966 66.4553 32.4012 66.439C32.4028 66.439 32.4043 66.4387 32.4057 66.4381C32.4071 66.4374 32.4084 66.4365 32.4094 66.4354C32.4104 66.4343 32.4112 66.4329 32.4117 66.4315C32.4122 66.43 32.4124 66.4285 32.4122 66.427V66.416C32.4114 66.4098 32.4119 66.4036 32.4138 66.3977C32.4157 66.3918 32.4189 66.3864 32.4232 66.382H32.4352C32.4572 66.336 32.5032 66.291 32.5482 66.223C32.9464 65.5798 33.567 65.1052 34.292 64.8893C35.017 64.6735 35.7961 64.7314 36.4812 65.052L64.6032 77.612L96.0892 91.662L96.2253 91.73C96.2411 91.7348 96.2561 91.7426 96.2692 91.753Z" fill="url(#paint1_linear_2_1459)"/>
<g style="mix-blend-mode:multiply" opacity="0.2">
<g style="mix-blend-mode:multiply" opacity="0.2">
<path d="M103.965 83.6601L96.2647 91.7531C96.2509 91.7429 96.2352 91.7354 96.2186 91.7311L64.5966 77.6131L65.7447 77.0791L71.0527 74.5901L103.965 83.6601Z" fill="black"/>
</g>
</g>
<g style="mix-blend-mode:screen" opacity="0.5">
<g style="mix-blend-mode:screen" opacity="0.5">
<path d="M32.4215 66.3831H32.4335C32.4215 66.4051 32.4105 66.4171 32.4105 66.4281C32.4089 66.4123 32.4128 66.3964 32.4215 66.3831Z" fill="white"/>
</g>
</g>
<g style="mix-blend-mode:screen" opacity="0.5">
<g style="mix-blend-mode:screen" opacity="0.5">
<path d="M96.2688 91.753C96.2688 91.753 95.2338 91.378 93.4378 90.696C91.6378 89.98 89.0728 89.026 86.0158 87.775C82.9578 86.547 79.3998 85.081 75.6158 83.467C71.8318 81.853 67.8068 80.08 63.7828 78.307C61.7828 77.397 59.7828 76.499 57.8158 75.601C55.8488 74.726 53.9278 73.801 52.0528 72.942C48.3248 71.202 44.8578 69.542 41.9019 68.077C40.4129 67.36 39.0718 66.677 37.8668 66.065C37.2758 65.765 36.7078 65.473 36.2068 65.235C35.7571 65.0232 35.2586 64.9369 34.7639 64.985C34.0467 65.0502 33.3748 65.3636 32.8638 65.871C32.819 65.9136 32.7772 65.9594 32.7388 66.008C32.7023 66.0427 32.6689 66.0806 32.6389 66.121C32.6056 66.1516 32.5752 66.1851 32.5479 66.221C32.9461 65.5778 33.5666 65.1033 34.2916 64.8874C35.0166 64.6715 35.7957 64.7294 36.4808 65.05L64.6028 77.61L96.0888 91.66L96.2248 91.728C96.2409 91.7335 96.2558 91.742 96.2688 91.753Z" fill="white"/>
</g>
</g>
<g style="mix-blend-mode:multiply" opacity="0.2">
<g style="mix-blend-mode:multiply" opacity="0.2">
<path d="M83.8333 104.825L73.9443 115.225C73.8012 115.377 73.6496 115.522 73.4903 115.657C72.8682 116.184 72.1438 116.577 71.3626 116.81C70.5814 117.044 69.7603 117.113 68.951 117.014C68.1418 116.914 67.3618 116.649 66.6602 116.233C65.9586 115.818 65.3505 115.262 64.8743 114.6L45.1523 87.2061C45.2893 87.3541 45.8573 88.0241 46.7523 89.1061C47.7523 90.3561 49.2303 92.1181 50.9243 94.2781C52.6183 96.4381 54.5843 98.9721 56.6413 101.723C58.7103 104.451 60.8583 107.423 63.0183 110.373L64.6093 112.613L65.3933 113.726L65.5983 113.999C65.6502 114.079 65.7073 114.155 65.7693 114.227C65.8892 114.39 66.0231 114.542 66.1693 114.681C66.6933 115.211 67.3275 115.619 68.0269 115.876C68.7263 116.134 69.4738 116.234 70.2163 116.17C70.9424 116.11 71.6476 115.897 72.2853 115.545C72.5905 115.377 72.8762 115.176 73.1373 114.945L73.3653 114.752L73.4553 114.672L73.5553 114.558L73.9753 114.149C75.0893 113.035 76.1583 112.001 77.1583 111.049C79.1253 109.139 80.8303 107.605 81.9893 106.491C83.0283 105.545 83.6863 104.945 83.8333 104.825Z" fill="black"/>
</g>
</g>
<g style="mix-blend-mode:screen" opacity="0.5">
<g style="mix-blend-mode:screen" opacity="0.5">
<path d="M137.042 48.662C137.181 48.3477 137.25 48.0063 137.242 47.6624C137.234 47.3185 137.15 46.9807 136.997 46.673C136.793 46.2147 136.441 45.8377 135.998 45.6022C135.556 45.3666 135.047 45.2859 134.553 45.373C133.931 45.5787 133.336 45.8574 132.78 46.203C132.132 46.532 131.45 46.885 130.745 47.248C127.903 48.715 124.573 50.386 120.992 52.148C119.192 53.012 117.344 53.948 115.445 54.83C113.546 55.712 111.638 56.638 109.717 57.547C105.852 59.347 101.987 61.127 98.3376 62.753C94.6886 64.379 91.2796 65.867 88.3376 67.106C85.3936 68.368 82.9155 69.334 81.1875 70.05C79.6985 70.65 78.7436 71.005 78.5166 71.096L133.737 45.237C134.264 44.9919 134.859 44.9349 135.424 45.0754C135.988 45.216 136.487 45.5457 136.838 46.0095C137.189 46.4734 137.37 47.0434 137.351 47.6247C137.333 48.2059 137.116 48.7633 136.737 49.204C136.858 49.0352 136.96 48.8534 137.042 48.662Z" fill="white"/>
</g>
</g>
<g style="mix-blend-mode:screen" opacity="0.3">
<g style="mix-blend-mode:screen" opacity="0.3">
<path d="M134.428 48.355L130.279 52.709C127.29 55.8463 124.304 58.9834 121.322 62.12L80.1064 72.862C89.7684 68.338 99.4351 63.814 109.106 59.29C116.801 55.69 124.501 52.083 132.206 48.469C132.945 48.128 133.684 47.775 134.423 47.434C135.328 47.002 134.813 47.945 134.428 48.355Z" fill="white"/>
</g>
</g>
<g style="mix-blend-mode:screen" opacity="0.3">
<g style="mix-blend-mode:screen" opacity="0.3">
<path d="M92.4155 92.5151C90.5281 94.4825 88.6488 96.4564 86.7775 98.4371C86.2545 98.9831 85.7325 99.5371 85.2095 100.085L35.2285 67.0991C35.8035 67.2015 36.3545 67.4097 36.8535 67.7131C44.9475 71.3271 53.0445 74.9418 61.1445 78.5571C71.5691 83.2158 81.9928 87.8685 92.4155 92.5151Z" fill="white"/>
</g>
</g>
</g>
<defs>
<filter id="filter0_d_2_1459" x="0" y="0" width="170" height="170" filterUnits="userSpaceOnUse" color-interpolation-filters="sRGB">
<feFlood flood-opacity="0" result="BackgroundImageFix"/>
<feColorMatrix in="SourceAlpha" type="matrix" values="0 0 0 0 0 0 0 0 0 0 0 0 0 0 0 0 0 0 127 0" result="hardAlpha"/>
<feOffset dy="4"/>
<feGaussianBlur stdDeviation="2"/>
<feComposite in2="hardAlpha" operator="out"/>
<feColorMatrix type="matrix" values="0 0 0 0 0 0 0 0 0 0 0 0 0 0 0 0 0 0 0.25 0"/>
<feBlend mode="normal" in2="BackgroundImageFix" result="effect1_dropShadow_2_1459"/>
<feBlend mode="normal" in="SourceGraphic" in2="effect1_dropShadow_2_1459" result="shape"/>
</filter>
<linearGradient id="paint0_linear_2_1459" x1="44.8793" y1="68.3765" x2="137.354" y2="68.3765" gradientUnits="userSpaceOnUse">
<stop stop-color="#F8007A"/>
<stop offset="1" stop-color="#FC7300"/>
</linearGradient>
<linearGradient id="paint1_linear_2_1459" x1="88.8782" y1="81.5482" x2="43.5601" y2="99.207" gradientUnits="userSpaceOnUse">
<stop stop-color="#FCC400"/>
<stop offset="0.162" stop-color="#FBC000"/>
<stop offset="0.307" stop-color="#FBB500"/>
<stop offset="0.446" stop-color="#FBA300"/>
<stop offset="0.581" stop-color="#FA8900"/>
<stop offset="0.712" stop-color="#FA6800"/>
<stop offset="0.842" stop-color="#F93F00"/>
<stop offset="0.967" stop-color="#F81000"/>
<stop offset="1" stop-color="#F80300"/>
</linearGradient>
</defs>
</svg>
